<svg width="580" height="525" fill="none" xmlns="http://www.w3.org/2000/svg"><g filter="url(#a)"><rect x="20" y="10" width="260" height="235" rx="4" fill="#fff"/></g><path fill="#FAFAFA" stroke="#E5E9EA" d="M36.208 26.207h230.286v202.586H36.208z"/><path fill="#E5E9EA" d="M36.208 127.5h230.286v.791H36.208zM36.208 146.492h230.286v.791H36.208zM36.208 165.485h230.286v.791H36.208zM36.208 184.477h230.286v.791H36.208zM36.208 51.53h230.286v.791H36.208zM36.208 32.538h230.286v.791H36.208zM36.208 70.523h230.286v.791H36.208zM36.208 89.515h230.286v.791H36.208zM36.208 108.508h230.286v.791H36.208zM36.208 203.47h230.286v.791H36.208zM36.208 222.462h230.286v.791H36.208z"/><g><path d="M42.286 127.5H73.35v45.647a5 5 0 0 1-5 5H47.286a5 5 0 0 1-5-5V127.5z" fill="#242D52"/><path d="M42.286 127.5H73.35v32.985a5 5 0 0 1-5 5H47.286a5 5 0 0 1-5-5V127.5z" fill="#F3603C"/></g><g><path d="M89.558 127.234h31.065V92.658a5 5 0 0 0-5-5H94.558a5 5 0 0 0-5 5v34.576z" fill="#F3603C"/><path d="M89.558 127.234h31.065v51.99a5 5 0 0 1-5 5H94.558a5 5 0 0 1-5-5v-51.99z" fill="#242D52"/></g><g><path d="M182.078 127.5h31.065V56.193a5 5 0 0 0-5-5h-21.065a5 5 0 0 0-5 5V127.5z" fill="#242D52"/><path d="M182.078 127.5h31.065V75.27a5 5 0 0 0-5-5h-21.065a5 5 0 0 0-5 5v52.23z" fill="#F3603C"/></g><g><path d="M229.351 127.5h31.065v58.477a5 5 0 0 1-5 5h-21.065a5 5 0 0 1-5-5V127.5z" fill="#242D52"/><path d="M229.351 127.5h31.065v45.782a5 5 0 0 1-5 5h-21.065a5 5 0 0 1-5-5V127.5z" fill="#F3603C"/></g><g><path d="M135.48 127.5h31.065v90.216a5 5 0 0 1-5 5H140.48a5 5 0 0 1-5-5V127.5z" fill="#F3603C"/><path d="M135.48 127.5h31.065v33.086a5 5 0 0 1-5 5H140.48a5 5 0 0 1-5-5V127.5z" fill="#242D52"/></g><g><g filter="url(#b)"><rect x="300" y="10" width="260" height="235" rx="4" fill="#fff"/></g><g stroke-width="40"><path d="M491.377 127.5c0 33.707-27.327 61.034-61.039 61.034s-61.039-27.327-61.039-61.034c0-33.707 27.327-61.034 61.039-61.034s61.039 27.327 61.039 61.034z" stroke="#fff"/><path d="M430.338 46.465c22.378 0 42.637 9.07 57.302 23.734l-14.141 14.143c11.068 11.067 17.878 26.298 17.878 43.158h20c0 22.377-9.071 42.636-23.737 57.301l-14.141-14.143c-11.068 11.067-26.3 17.876-43.161 17.876v20c-22.378 0-42.638-9.069-57.303-23.733l14.142-14.143c-11.068-11.067-17.878-26.298-17.878-43.158h-20c0-22.377 9.071-42.636 23.736-57.3l14.142 14.142c11.067-11.067 26.3-17.876 43.161-17.876v-20z" stroke="#F3603C" stroke-dasharray="502"/><path d="M430.338 46.465c22.378 0 42.637 9.07 57.302 23.734l-14.141 14.143c11.068 11.067 17.878 26.298 17.878 43.158h20c0 22.377-9.071 42.636-23.737 57.301l-14.141-14.143c-11.068 11.067-26.3 17.876-43.161 17.876v20c-22.378 0-42.638-9.069-57.303-23.733l14.142-14.143c-11.068-11.067-17.878-26.298-17.878-43.158h-20c0-22.377 9.071-42.636 23.736-57.3l14.142 14.142c11.067-11.067 26.3-17.876 43.161-17.876v-20z" stroke="#242D52" stroke-dasharray="340"/></g></g><g><g filter="url(#c)"><rect x="160" y="260" width="260" height="235" rx="4" fill="#fff"/></g><rect x="176.208" y="400.46" width="106.026" height="78.333" rx="4" fill="#F3603C"/><path fill-rule="evenodd" clip-rule="evenodd" d="M237.93 452.899c-.6.607-1.329.91-2.186.91a2.975 2.975 0 0 1-2.191-.91 3.008 3.008 0 0 1-.905-2.205c0-.851.303-1.58.91-2.187a2.982 2.982 0 0 1 2.186-.91c.857 0 1.586.304 2.186.91a3 3 0 0 1 .9 2.187c0 .857-.3 1.592-.9 2.205zm-26.415 9.012v-14.106h-2.156l-3.433 2.997v2.374l3.314-2.977v11.712h2.275zm-12.264-2.038v-3.907h3.898v-1.781h-3.898v-3.907h-1.78v3.907h-3.908v1.781h3.908v3.907h1.78zm19.686 1.83a1.35 1.35 0 0 1-.984.406c-.376 0-.703-.137-.98-.411a1.32 1.32 0 0 1-.415-.974c0-.383.138-.711.415-.984.277-.274.604-.411.98-.411.382 0 .71.137.984.411.274.273.41.601.41.984 0 .382-.136.709-.41.979zm7.6.396c1.451 0 2.623-.444 3.516-1.331.894-.887 1.341-2.052 1.341-3.496 0-1.438-.439-2.544-1.316-3.319-.877-.775-2.199-1.162-3.967-1.162h-1.543l.307-2.919h5.876v-2.057h-7.865l-.732 6.914h3.631c2.209 0 3.314.874 3.314 2.622 0 .791-.233 1.429-.698 1.914-.465.485-1.103.727-1.914.727-.705 0-1.307-.205-1.805-.613-.498-.409-.747-1.023-.747-1.84 0-.165.023-.403.069-.713l-2.285.139a6.34 6.34 0 0 0-.049.712c0 .917.227 1.716.682 2.399a4.197 4.197 0 0 0 1.771 1.523c.725.333 1.53.5 2.414.5zm10.295-.178 7.459-14.136h-1.979l-7.439 14.136h1.959zm-2.176-10.134c.303.3.666.45 1.088.45.435 0 .8-.15 1.093-.45.293-.3.44-.665.44-1.093 0-.423-.148-.782-.445-1.079a1.483 1.483 0 0 0-1.088-.445c-.422 0-.785.147-1.088.44a1.448 1.448 0 0 0-.455 1.084c0 .428.151.793.455 1.093zm8.873 10.292c.851 0 1.575-.303 2.172-.91a3.009 3.009 0 0 0 .895-2.186c0-.857-.3-1.588-.9-2.191a2.944 2.944 0 0 0-2.167-.905 3 3 0 0 0-2.196.905 2.975 2.975 0 0 0-.91 2.191c0 .857.302 1.588.905 2.191a2.998 2.998 0 0 0 2.201.905zm-1.098-2.013c.297.3.663.45 1.098.45.422 0 .785-.15 1.088-.45.304-.3.455-.661.455-1.083 0-.422-.153-.785-.46-1.088a1.485 1.485 0 0 0-1.083-.455c-.435 0-.801.148-1.098.445a1.492 1.492 0 0 0-.445 1.098c0 .422.148.783.445 1.083z" fill="#fff"/><rect x="297.766" y="400.46" width="106.026" height="78.333" rx="4" fill="#FAFAFA"/><path fill-rule="evenodd" clip-rule="evenodd" d="M352.695 461.911v-2.058h-6.509l4.145-4.293c.666-.692 1.154-1.342 1.464-1.948a4.31 4.31 0 0 0 .465-1.989c0-1.253-.419-2.239-1.257-2.957-.837-.719-1.915-1.079-3.234-1.079-1.405 0-2.52.393-3.344 1.178-.824.784-1.237 1.909-1.237 3.373v.791l2.266.218v-1.039c0-.917.208-1.584.623-2.003.416-.419.983-.628 1.702-.628.685 0 1.229.189 1.632.569.402.379.603.908.603 1.587 0 .877-.471 1.801-1.414 2.77l-5.639 5.787v1.721h9.734zm-32.825.188c.936 0 1.777-.168 2.523-.505a4.184 4.184 0 0 0 1.775-1.503c.439-.66.658-1.421.658-2.285 0-.851-.218-1.593-.653-2.226-.435-.633-1.025-1.114-1.771-1.444.528-.31.943-.714 1.247-1.212a3.143 3.143 0 0 0 .455-1.667c0-1.068-.401-1.943-1.202-2.626-.801-.682-1.812-1.024-3.032-1.024-1.24 0-2.262.34-3.067 1.019-.804.679-1.207 1.556-1.207 2.631 0 .614.155 1.169.465 1.667.31.498.736.902 1.276 1.212-.758.323-1.353.801-1.785 1.434-.432.633-.648 1.379-.648 2.236 0 .864.219 1.625.658 2.285a4.142 4.142 0 0 0 1.78 1.498c.749.34 1.591.51 2.528.51zm0-8.665c-.607 0-1.118-.197-1.533-.589a1.925 1.925 0 0 1-.624-1.459c0-.567.208-1.044.624-1.429.415-.386.926-.579 1.533-.579.6 0 1.108.193 1.523.579.416.385.624.862.624 1.429 0 .574-.21 1.058-.629 1.454a2.129 2.129 0 0 1-1.518.594zm-1.919 5.925c.508.455 1.147.682 1.919.682.758 0 1.391-.229 1.899-.687.508-.458.762-1.063.762-1.815 0-.745-.254-1.342-.762-1.791-.508-.448-1.141-.672-1.899-.672-.772 0-1.411.224-1.919.672-.508.449-.762 1.046-.762 1.791 0 .758.254 1.365.762 1.82zm12.996 2.74c.936 0 1.777-.168 2.522-.505a4.181 4.181 0 0 0 1.776-1.503c.439-.66.658-1.421.658-2.285 0-.851-.218-1.593-.653-2.226-.435-.633-1.025-1.114-1.771-1.444.528-.31.943-.714 1.247-1.212a3.143 3.143 0 0 0 .455-1.667c0-1.068-.401-1.943-1.202-2.626-.801-.682-1.812-1.024-3.032-1.024-1.24 0-2.262.34-3.067 1.019-.804.679-1.207 1.556-1.207 2.631 0 .614.155 1.169.465 1.667.31.498.736.902 1.276 1.212-.758.323-1.353.801-1.785 1.434-.432.633-.648 1.379-.648 2.236 0 .864.219 1.625.658 2.285a4.142 4.142 0 0 0 1.78 1.498c.749.34 1.591.51 2.528.51zm-1.533-9.254c.415.392.926.589 1.533.589.593 0 1.1-.198 1.518-.594.419-.396.629-.88.629-1.454a1.87 1.87 0 0 0-.624-1.429c-.415-.386-.923-.579-1.523-.579-.607 0-1.118.193-1.533.579a1.87 1.87 0 0 0-.624 1.429c0 .58.208 1.067.624 1.459zm1.533 7.196c-.772 0-1.411-.227-1.919-.682-.508-.455-.762-1.062-.762-1.82 0-.745.254-1.342.762-1.791.508-.448 1.147-.672 1.919-.672.758 0 1.391.224 1.899.672.508.449.762 1.046.762 1.791 0 .752-.254 1.357-.762 1.815-.508.458-1.141.687-1.899.687zm9.42 1.662a1.35 1.35 0 0 1-.985.406c-.375 0-.702-.137-.979-.411a1.32 1.32 0 0 1-.415-.974c0-.383.138-.711.415-.984.277-.274.604-.411.979-.411.383 0 .711.137.985.411.273.273.41.601.41.984 0 .382-.137.709-.41.979zm22.03-2.552v2.76h-2.275v-2.76h-6.628v-2.057l5.431-9.289h3.472v9.298h1.939v2.048h-1.939zm-2.275-2.048h-4.412l4.412-7.834v7.834zm10.315-4.204c-.6.607-1.329.91-2.186.91a2.977 2.977 0 0 1-2.192-.91 3.012 3.012 0 0 1-.905-2.205c0-.851.304-1.58.91-2.187a2.986 2.986 0 0 1 2.187-.91c.857 0 1.586.304 2.186.91a3 3 0 0 1 .9 2.187c0 .857-.3 1.592-.9 2.205zm-1.098 9.022 7.459-14.136h-1.979l-7.439 14.136h1.959zm-2.177-10.134c.304.3.667.45 1.089.45.435 0 .799-.15 1.093-.45.293-.3.44-.665.44-1.093 0-.423-.148-.782-.445-1.079a1.484 1.484 0 0 0-1.088-.445c-.422 0-.785.147-1.089.44a1.451 1.451 0 0 0-.455 1.084c0 .428.152.793.455 1.093zm8.874 10.292c.851 0 1.575-.303 2.171-.91a3.006 3.006 0 0 0 .896-2.186c0-.857-.3-1.588-.901-2.191a2.942 2.942 0 0 0-2.166-.905 3 3 0 0 0-2.196.905 2.975 2.975 0 0 0-.91 2.191c0 .857.301 1.588.905 2.191.603.603 1.337.905 2.201.905zm-1.098-2.013c.297.3.663.45 1.098.45.422 0 .785-.15 1.088-.45.304-.3.455-.661.455-1.083 0-.422-.153-.785-.46-1.088a1.487 1.487 0 0 0-1.083-.455c-.435 0-.801.148-1.098.445a1.492 1.492 0 0 0-.445 1.098c0 .422.148.783.445 1.083z" fill="#1E272E"/><g><rect x="176.208" y="276.207" width="227.584" height="108.046" rx="4" fill="#FAFAFA"/><path fill-rule="evenodd" clip-rule="evenodd" d="M311.631 341.393c-1.28 1.295-2.835 1.942-4.664 1.942-1.829 0-3.387-.647-4.674-1.942-1.287-1.294-1.931-2.863-1.931-4.706 0-1.815.647-3.369 1.942-4.663 1.294-1.295 2.849-1.942 4.663-1.942 1.829 0 3.384.647 4.664 1.942 1.281 1.294 1.921 2.848 1.921 4.663 0 1.829-.64 3.398-1.921 4.706zm-101.256 18.55c-1.59.717-3.384 1.076-5.382 1.076-1.997 0-3.795-.363-5.392-1.087-1.596-.725-2.863-1.79-3.798-3.197-.936-1.407-1.404-3.032-1.404-4.875 0-1.829.461-3.418 1.383-4.769.921-1.351 2.191-2.371 3.809-3.06-1.154-.661-2.061-1.523-2.723-2.585-.661-1.062-.991-2.247-.991-3.556 0-2.293.858-4.164 2.574-5.613 1.717-1.449 3.897-2.174 6.542-2.174 2.603 0 4.759.728 6.469 2.184 1.709 1.456 2.564 3.324 2.564 5.603 0 1.309-.324 2.494-.971 3.556-.647 1.062-1.533 1.924-2.659 2.585 1.59.703 2.849 1.73 3.778 3.081.928 1.351 1.392 2.933 1.392 4.748 0 1.843-.467 3.468-1.403 4.875-.936 1.407-2.198 2.476-3.788 3.208zm-8.653-18.666c.887.837 1.977 1.256 3.271 1.256 1.267 0 2.346-.422 3.24-1.266.893-.845 1.34-1.879 1.34-3.103 0-1.209-.443-2.226-1.33-3.049-.886-.823-1.969-1.234-3.25-1.234-1.294 0-2.384.411-3.271 1.234-.886.823-1.329 1.84-1.329 3.049 0 1.239.443 2.276 1.329 3.113zm3.271 15.352c-1.646 0-3.01-.485-4.094-1.456-1.083-.97-1.625-2.265-1.625-3.883 0-1.589.542-2.863 1.625-3.819 1.084-.957 2.448-1.435 4.094-1.435 1.618 0 2.969.478 4.052 1.435 1.084.956 1.625 2.23 1.625 3.819 0 1.604-.541 2.895-1.625 3.873-1.083.978-2.434 1.466-4.052 1.466zm31.466-8.884-9.729 12.873h-5.634l8.019-10.319a9.294 9.294 0 0 1-1.899.189 9.653 9.653 0 0 1-4.685-1.181c-1.449-.788-2.635-1.945-3.556-3.472-.922-1.526-1.39-3.274-1.404-5.244-.014-2.011.468-3.823 1.446-5.434.978-1.61 2.286-2.849 3.925-3.714 1.639-.865 3.437-1.298 5.392-1.298 1.998 0 3.817.437 5.456 1.309a9.9 9.9 0 0 1 3.893 3.682c.957 1.583 1.435 3.359 1.435 5.329 0 2.462-.886 4.888-2.659 7.28zm-7.998-.886c-1.801 0-3.275-.566-4.421-1.699-1.147-1.132-1.727-2.62-1.741-4.463-.014-1.815.562-3.289 1.73-4.421 1.168-1.133 2.645-1.699 4.432-1.699 1.815 0 3.278.549 4.39 1.646 1.111 1.097 1.667 2.575 1.667 4.432 0 1.758-.566 3.232-1.699 4.421-1.133 1.188-2.585 1.783-4.358 1.783zm19.764 13.316a2.885 2.885 0 0 1-2.1.865c-.802 0-1.498-.292-2.089-.876-.591-.584-.887-1.277-.887-2.079 0-.815.296-1.515.887-2.099.591-.584 1.287-.876 2.089-.876.816 0 1.516.292 2.1.876.584.584.876 1.284.876 2.099 0 .816-.292 1.513-.876 2.09zm12.124.443 14.161-26.231v-3.862h-20.914v4.369h15.448l-14.224 25.724h5.529zm34.378-5.888v5.888h-4.854v-5.888h-14.139v-4.389l11.586-19.816h7.407v19.837h4.137v4.368h-4.137zm-4.854-4.368h-9.412l9.412-16.713v16.713zm19.416 10.277 15.912-30.156h-4.221l-15.87 30.156h4.179zm-4.643-21.62c.647.64 1.421.96 2.321.96.929 0 1.706-.32 2.332-.96.627-.64.94-1.417.94-2.332 0-.9-.317-1.667-.95-2.3-.633-.633-1.407-.95-2.322-.95-.9 0-1.674.314-2.321.94-.647.626-.971 1.396-.971 2.31 0 .915.324 1.692.971 2.332zm18.93 21.958c1.815 0 3.359-.648 4.633-1.942 1.273-1.294 1.909-2.849 1.909-4.664 0-1.829-.64-3.387-1.92-4.674-1.28-1.287-2.821-1.931-4.622-1.931-1.829 0-3.39.644-4.685 1.931-1.294 1.287-1.941 2.845-1.941 4.674 0 1.829.643 3.387 1.931 4.675 1.287 1.287 2.852 1.931 4.695 1.931zm-2.342-4.295c.633.64 1.414.96 2.342.96.901 0 1.674-.32 2.322-.96.647-.64.97-1.41.97-2.311 0-.9-.327-1.674-.981-2.321-.654-.647-1.424-.971-2.311-.971-.928 0-1.709.317-2.342.95s-.95 1.414-.95 2.342c0 .901.317 1.671.95 2.311z" fill="#343A40"/></g></g><defs><filter id="a" x="0" y="0" width="300" height="275" filterUnits="userSpaceOnUse" color-interpolation-filters="sRGB"><feFlood flood-opacity="0" result="BackgroundImageFix"/><feColorMatrix in="SourceAlpha" values="0 0 0 0 0 0 0 0 0 0 0 0 0 0 0 0 0 0 127 0" result="hardAlpha"/><feOffset dy="10"/><feGaussianBlur stdDeviation="10"/><feColorMatrix values="0 0 0 0 0.311766 0 0 0 0 0.336514 0 0 0 0 0.386011 0 0 0 0.03 0"/><feBlend in2="BackgroundImageFix" result="effect1_dropShadow_0_882"/><feBlend in="SourceGraphic" in2="effect1_dropShadow_0_882" result="shape"/></filter><filter id="b" x="280" y="0" width="300" height="275" filterUnits="userSpaceOnUse" color-interpolation-filters="sRGB"><feFlood flood-opacity="0" result="BackgroundImageFix"/><feColorMatrix in="SourceAlpha" values="0 0 0 0 0 0 0 0 0 0 0 0 0 0 0 0 0 0 127 0" result="hardAlpha"/><feOffset dy="10"/><feGaussianBlur stdDeviation="10"/><feColorMatrix values="0 0 0 0 0.311766 0 0 0 0 0.336514 0 0 0 0 0.386011 0 0 0 0.03 0"/><feBlend in2="BackgroundImageFix" result="effect1_dropShadow_0_882"/><feBlend in="SourceGraphic" in2="effect1_dropShadow_0_882" result="shape"/></filter><filter id="c" x="140" y="250" width="300" height="275" filterUnits="userSpaceOnUse" color-interpolation-filters="sRGB"><feFlood flood-opacity="0" result="BackgroundImageFix"/><feColorMatrix in="SourceAlpha" values="0 0 0 0 0 0 0 0 0 0 0 0 0 0 0 0 0 0 127 0" result="hardAlpha"/><feOffset dy="10"/><feGaussianBlur stdDeviation="10"/><feColorMatrix values="0 0 0 0 0.311766 0 0 0 0 0.336514 0 0 0 0 0.386011 0 0 0 0.03 0"/><feBlend in2="BackgroundImageFix" result="effect1_dropShadow_0_882"/><feBlend in="SourceGraphic" in2="effect1_dropShadow_0_882" result="shape"/></filter></defs></svg>